<svg width="113" height="112" viewBox="0 0 113 112" fill="none" xmlns="http://www.w3.org/2000/svg">
<path d="M56.9219 104C83.4315 104 104.922 82.5097 104.922 56C104.922 29.4903 83.4315 8 56.9219 8C30.4122 8 8.92188 29.4903 8.92188 56C8.92188 82.5097 30.4122 104 56.9219 104Z" fill="#A86CFF" stroke="white" stroke-width="16"/>
<path d="M50.6044 70.5038C50.6044 78.1244 54.9061 83.2811 62.7065 83.2811C70.5643 83.2811 74.866 78.1244 74.866 70.5038L74.866 55.0908L38.7404 55.0908L38.7404 64.2011L50.6044 64.2011L50.6044 70.5038ZM62.7065 74.3427C60.0681 74.3427 58.2901 72.853 58.2901 69.5298L58.2901 64.2011L67.1229 64.2011L67.1229 69.5298C67.1229 72.853 65.4022 74.3427 62.7065 74.3427Z" fill="white"/>
<circle cx="47.8311" cy="40.5455" r="4.54545" fill="white"/>
<circle cx="66.013" cy="40.5455" r="4.54545" fill="white"/>
</svg>
