<svg width="120" height="120" viewBox="0 0 120 120" fill="none" xmlns="http://www.w3.org/2000/svg">
<g clip-path="url(#clip0)">
<rect width="120" height="120" fill="white"/>
<g filter="url(#filter0_d)">
<path d="M0 0H120V120H0V0Z" fill="#B78EFF"/>
</g>
<path d="M19.0362 52.5185C20.5599 52.5185 21.7858 53.0176 22.7141 54.0159C23.6423 55.0142 24.1064 56.389 24.1064 58.1403C24.1064 58.7883 24.0451 59.4276 23.9225 60.0581C23.6423 61.5992 23.1344 62.9478 22.3988 64.1037C21.6632 65.2421 20.7701 66.1177 19.7192 66.7307C18.6684 67.3262 17.5563 67.6239 16.3829 67.6239C15.3321 67.6239 14.4739 67.405 13.8084 66.9671C13.1429 66.5118 12.6963 65.8901 12.4686 65.1019L11.1752 72.0811H6L9.47383 52.7024H14.6491L14.2288 55.0404C14.7191 54.2523 15.3846 53.6394 16.2253 53.2015C17.0659 52.7462 18.0029 52.5185 19.0362 52.5185ZM15.4635 63.1054C16.2691 63.1054 16.9696 62.8427 17.5651 62.3173C18.1605 61.7744 18.5371 61.0213 18.6947 60.0581C18.7472 59.7954 18.7735 59.5414 18.7735 59.2962C18.7735 58.5782 18.5721 58.0265 18.1693 57.6412C17.7665 57.2384 17.2236 57.037 16.5405 57.037C15.7524 57.037 15.0606 57.3084 14.4652 57.8514C13.8872 58.3943 13.5107 59.1298 13.3356 60.0581C13.283 60.3383 13.2568 60.601 13.2568 60.8462C13.2568 61.5642 13.4582 62.1246 13.861 62.5275C14.2638 62.9128 14.7979 63.1054 15.4635 63.1054Z" fill="white"/>
<path d="M31.8742 52.5185C32.9775 52.5185 33.8882 52.7462 34.6063 53.2015C35.3418 53.6569 35.8235 54.2698 36.0511 55.0404L36.4715 52.7024H41.6204L38.9934 67.44H33.8707L34.291 65.1019C33.8007 65.8725 33.1351 66.4855 32.2945 66.9409C31.4538 67.3962 30.5081 67.6239 29.4573 67.6239C27.8636 67.6239 26.6114 67.116 25.7007 66.1002C24.8075 65.0669 24.3609 63.6396 24.3609 61.8182C24.3609 61.1877 24.4309 60.4521 24.571 59.6115C24.8337 58.1578 25.3241 56.8969 26.0422 55.8285C26.7602 54.7602 27.6271 53.9458 28.6429 53.3854C29.6587 52.8075 30.7358 52.5185 31.8742 52.5185ZM33.0301 57.037C32.2244 57.037 31.5239 57.3084 30.9284 57.8514C30.3505 58.3768 29.974 59.1123 29.7988 60.0581C29.7463 60.3208 29.72 60.5747 29.72 60.8199C29.72 61.5555 29.9214 62.1246 30.3242 62.5275C30.727 62.9128 31.27 63.1054 31.953 63.1054C32.7236 63.1054 33.4066 62.8339 34.0021 62.291C34.615 61.7481 35.0003 61.0038 35.158 60.0581C35.2105 59.7954 35.2368 59.5414 35.2368 59.2962C35.2368 58.5782 35.0354 58.0265 34.6325 57.6412C34.2297 57.2384 33.6956 57.037 33.0301 57.037Z" fill="white"/>
<path d="M49.4133 48L45.9981 67.44H40.8229L44.238 48H49.4133Z" fill="white"/>
<path d="M55.581 52.5185C56.6844 52.5185 57.5951 52.7462 58.3131 53.2015C59.0487 53.6569 59.5303 54.2698 59.758 55.0404L60.1783 52.7024H65.3273L62.7003 67.44H57.5776L57.9979 65.1019C57.5075 65.8725 56.842 66.4855 56.0014 66.9409C55.1607 67.3962 54.215 67.6239 53.1642 67.6239C51.5704 67.6239 50.3182 67.116 49.4075 66.1002C48.5143 65.0669 48.0677 63.6396 48.0677 61.8182C48.0677 61.1877 48.1378 60.4521 48.2779 59.6115C48.5406 58.1578 49.031 56.8969 49.749 55.8285C50.4671 54.7602 51.334 53.9458 52.3498 53.3854C53.3656 52.8075 54.4427 52.5185 55.581 52.5185ZM56.7369 57.037C55.9313 57.037 55.2308 57.3084 54.6353 57.8514C54.0574 58.3768 53.6808 59.1123 53.5057 60.0581C53.4531 60.3208 53.4269 60.5747 53.4269 60.8199C53.4269 61.5555 53.6283 62.1246 54.0311 62.5275C54.4339 62.9128 54.9768 63.1054 55.6598 63.1054C56.4304 63.1054 57.1135 62.8339 57.7089 62.291C58.3219 61.7481 58.7072 61.0038 58.8648 60.0581C58.9174 59.7954 58.9436 59.5414 58.9436 59.2962C58.9436 58.5782 58.7422 58.0265 58.3394 57.6412C57.9366 57.2384 57.4024 57.037 56.7369 57.037Z" fill="white"/>
<path d="M86.518 52.571C88.1117 52.571 89.3289 52.9914 90.1695 53.832C91.0277 54.6726 91.4568 55.8461 91.4568 57.3522C91.4568 57.755 91.413 58.2629 91.3254 58.8759L89.8018 67.44H84.6528L86.0451 59.5326C86.0801 59.2524 86.0976 59.051 86.0976 58.9284C86.0976 58.333 85.9138 57.8689 85.546 57.5361C85.1782 57.2034 84.6791 57.037 84.0486 57.037C83.2955 57.037 82.6562 57.2559 82.1308 57.6937C81.6229 58.1316 81.2989 58.7445 81.1588 59.5326L79.7402 67.44H74.5913L76.0099 59.5326C76.0449 59.2524 76.0624 59.0685 76.0624 58.981C76.0624 58.368 75.8785 57.8951 75.5107 57.5624C75.1429 57.2121 74.635 57.037 73.9871 57.037C73.234 57.037 72.5947 57.2646 72.0693 57.72C71.5439 58.1578 71.2112 58.7883 71.0711 59.6115V59.5064L69.6787 67.44H64.5298L67.1042 52.7024H72.2795L71.8854 54.9354C72.4284 54.2173 73.1114 53.6481 73.9345 53.2278C74.7752 52.7899 75.7034 52.571 76.7192 52.571C77.8225 52.571 78.7507 52.8162 79.5038 53.3066C80.2569 53.797 80.7911 54.4975 81.1063 55.4082C81.7718 54.5501 82.5774 53.867 83.5232 53.3591C84.4689 52.8337 85.4672 52.571 86.518 52.571Z" fill="white"/>
<path d="M100.977 52.5185C102.29 52.5185 103.446 52.7724 104.444 53.2803C105.46 53.7707 106.248 54.4888 106.809 55.4345C107.369 56.3802 107.649 57.5011 107.649 58.7971C107.649 59.34 107.597 59.9179 107.492 60.5309C107.229 61.9845 106.677 63.2455 105.837 64.3138C104.996 65.3822 103.954 66.2053 102.71 66.7832C101.467 67.3437 100.127 67.6239 98.6912 67.6239C97.3426 67.6239 96.1605 67.3787 95.1447 66.8883C94.1289 66.3804 93.332 65.6536 92.7541 64.7079C92.1936 63.7446 91.9134 62.615 91.9134 61.319C91.9134 60.7761 91.966 60.2069 92.0711 59.6115C92.3338 58.1578 92.8854 56.8969 93.7261 55.8285C94.5842 54.7602 95.6438 53.9458 96.9048 53.3854C98.1657 52.8075 99.523 52.5185 100.977 52.5185ZM100.32 56.9844C99.6194 56.9844 98.9889 57.2471 98.4285 57.7725C97.868 58.2979 97.4915 59.0598 97.2988 60.0581C97.2463 60.3733 97.22 60.6535 97.22 60.8987C97.22 61.6343 97.4039 62.1947 97.7717 62.58C98.157 62.9653 98.6474 63.1579 99.2428 63.1579C99.9434 63.1579 100.574 62.8952 101.134 62.3698C101.695 61.8444 102.071 61.0738 102.264 60.0581C102.316 59.7428 102.343 59.4626 102.343 59.2174C102.343 58.4818 102.15 57.9302 101.765 57.5624C101.397 57.1771 100.915 56.9844 100.32 56.9844Z" fill="white"/>
<circle cx="111.081" cy="64.7838" r="2.91892" fill="#24FF86"/>
</g>
<defs>
<filter id="filter0_d" x="-4" y="-2" width="128" height="128" filterUnits="userSpaceOnUse" color-interpolation-filters="sRGB">
<feFlood flood-opacity="0" result="BackgroundImageFix"/>
<feColorMatrix in="SourceAlpha" type="matrix" values="0 0 0 0 0 0 0 0 0 0 0 0 0 0 0 0 0 0 127 0"/>
<feOffset dy="2"/>
<feGaussianBlur stdDeviation="2"/>
<feColorMatrix type="matrix" values="0 0 0 0 0 0 0 0 0 0 0 0 0 0 0 0 0 0 0.1 0"/>
<feBlend mode="normal" in2="BackgroundImageFix" result="effect1_dropShadow"/>
<feBlend mode="normal" in="SourceGraphic" in2="effect1_dropShadow" result="shape"/>
</filter>
<clipPath id="clip0">
<rect width="120" height="120" fill="white"/>
</clipPath>
</defs>
</svg>
